<svg xmlns="http://www.w3.org/2000/svg" viewBox="0 -960 960 960"><path stroke="#000" stroke-width="20" d="M228.309-116.001q-27.008 0-45.658-19t-18.65-45.308v-503.382q0-26.308 18.65-45.308t45.658-19h87.385v-100.615h53.537v100.615h223.076v-100.615h51.999v100.615h87.385q27.008 0 45.658 19t18.65 45.308v503.382q0 26.308-18.65 45.308t-45.658 19zm0-51.999h503.382q4.616 0 8.463-3.846t3.846-8.463v-335.382H216v335.382q0 4.616 3.846 8.463t8.463 3.846ZM216-567.69h528v-116.001q0-4.616-3.846-8.463T731.691-696H228.309q-4.616 0-8.463 3.846T216-683.691zm0 0V-696zm264.211 186.767q-12.903 0-22.249-9.135t-9.346-22.039q0-12.902 9.135-22.248t22.038-9.346 22.249 9.135q9.346 9.136 9.346 22.038t-9.135 22.249q-9.136 9.346-22.038 9.346Zm-156 0q-12.903 0-22.249-9.135t-9.346-22.039q0-12.902 9.135-22.248t22.038-9.346 22.249 9.135q9.346 9.136 9.346 22.038t-9.135 22.249q-9.136 9.346-22.038 9.346Zm312 0q-12.903 0-22.249-9.135t-9.346-22.039q0-12.902 9.135-22.248t22.038-9.346 22.249 9.135q9.346 9.136 9.346 22.038t-9.135 22.249q-9.136 9.346-22.038 9.346ZM480.211-240q-12.903 0-22.249-9.136t-9.346-22.038 9.135-22.248q9.136-9.347 22.038-9.347t22.249 9.136q9.346 9.136 9.346 22.038t-9.135 22.249Q493.113-240 480.211-240Zm-156 0q-12.903 0-22.249-9.136t-9.346-22.038 9.135-22.248q9.136-9.347 22.038-9.347t22.249 9.136q9.346 9.136 9.346 22.038t-9.135 22.249Q337.113-240 324.211-240Zm312 0q-12.903 0-22.249-9.136t-9.346-22.038 9.135-22.248 22.038-9.347 22.249 9.136 9.346 22.038q0 12.903-9.135 22.249T636.211-240Z"/></svg>