<svg xmlns="http://www.w3.org/2000/svg" viewBox="0 -960 960 960"><path stroke="#000" stroke-width="20" d="M548.23-112.77q-13.803 13.769-32.939 13.769-19.137 0-32.906-13.769L113.54-481.616q-7.692-7.692-10.616-16.163t-2.923-17.836v-299q0-19.461 12.962-32.422 12.961-12.962 32.422-12.962h299q8.922 0 18.033 2.795 9.11 2.795 16.812 9.974l367.23 367.231q14.769 14.769 14.962 34.307T847.23-411.77zm-31.171-31L816.23-443.154 444.557-814.615H145.385v299zM249.186-667.462q17.968 0 30.968-13.147t13-31.115-12.955-30.968-30.923-12.999q-18.352 0-31.352 12.954t-13 30.923q0 17.968 12.955 31.16t31.307 13.192ZM145.385-814.615Z"/></svg>